<svg width="24" height="24" viewBox="0 0 24 24" fill="none" xmlns="http://www.w3.org/2000/svg">
<path d="M22 11.5C22.0038 12.8199 21.6612 14.1219 21 15.3C20.216 16.7118 19.0108 17.8992 17.5194 18.7293C16.0279 19.5594 14.3091 19.9994 12.5555 20C11.089 20.0035 9.64234 19.6951 8.33332 19.1L2 21L4.11111 15.3C3.44992 14.1219 3.10729 12.8199 3.11111 11.5C3.11179 9.92179 3.60068 8.37488 4.52302 7.03258C5.44536 5.69028 6.76472 4.6056 8.33332 3.90003C9.64234 3.30496 11.089 2.99659 12.5555 3.00003H13.1111C15.427 3.11502 17.6145 3.99479 19.2546 5.47089C20.8947 6.94699 21.8722 8.91568 22 11V11.5Z" stroke="#278EFF" stroke-width="2" stroke-linecap="round" stroke-linejoin="round"/>
<circle cx="9" cy="11" r="1" fill="#278EFF"/>
<circle cx="13" cy="11" r="1" fill="#278EFF"/>
<circle cx="17" cy="11" r="1" fill="#278EFF"/>
</svg>
